<?xml version="1.0" encoding="UTF-8"?>
<!--Generator: Apple Native CoreSVG 341-->
<!DOCTYPE svg
PUBLIC "-//W3C//DTD SVG 1.1//EN"
       "http://www.w3.org/Graphics/SVG/1.1/DTD/svg11.dtd">
<svg version="1.1" xmlns="http://www.w3.org/2000/svg" xmlns:xlink="http://www.w3.org/1999/xlink" viewBox="0 0 3300 2200">
 <!--glyph: "", point size: 100.0, font version: "20.0d8e1", template writer version: "138.0.0"-->
 <style>.monochrome-0 {-sfsymbols-variable-threshold:0.0;-sfsymbols-motion-group:4;-sfsymbols-layer-tags:7971fcf4a0b6dfaf}
.monochrome-1 {-sfsymbols-variable-threshold:0.21;-sfsymbols-motion-group:3;-sfsymbols-layer-tags:7971fcf4a0b6dfaf}
.monochrome-2 {-sfsymbols-variable-threshold:0.41;-sfsymbols-motion-group:2;-sfsymbols-always-pulses:true;-sfsymbols-layer-tags:7971fcf4a0b6dfaf}
.monochrome-3 {-sfsymbols-variable-threshold:0.61;-sfsymbols-motion-group:1;-sfsymbols-layer-tags:7971fcf4a0b6dfaf}
.monochrome-4 {-sfsymbols-variable-threshold:0.81;-sfsymbols-motion-group:0;-sfsymbols-layer-tags:7971fcf4a0b6dfaf}

.multicolor-0:tintColor {-sfsymbols-variable-threshold:0.0;-sfsymbols-motion-group:4;-sfsymbols-layer-tags:7971fcf4a0b6dfaf}
.multicolor-1:tintColor {-sfsymbols-variable-threshold:0.21;-sfsymbols-motion-group:3;-sfsymbols-layer-tags:7971fcf4a0b6dfaf}
.multicolor-2:tintColor {-sfsymbols-variable-threshold:0.41;-sfsymbols-motion-group:2;-sfsymbols-always-pulses:true;-sfsymbols-layer-tags:7971fcf4a0b6dfaf}
.multicolor-3:tintColor {-sfsymbols-variable-threshold:0.61;-sfsymbols-motion-group:1;-sfsymbols-layer-tags:7971fcf4a0b6dfaf}
.multicolor-4:tintColor {-sfsymbols-variable-threshold:0.81;-sfsymbols-motion-group:0;-sfsymbols-layer-tags:7971fcf4a0b6dfaf}

.hierarchical-0:primary {-sfsymbols-variable-threshold:0.0;-sfsymbols-motion-group:4;-sfsymbols-layer-tags:7971fcf4a0b6dfaf}
.hierarchical-1:primary {-sfsymbols-variable-threshold:0.21;-sfsymbols-motion-group:3;-sfsymbols-layer-tags:7971fcf4a0b6dfaf}
.hierarchical-2:primary {-sfsymbols-variable-threshold:0.41;-sfsymbols-motion-group:2;-sfsymbols-layer-tags:7971fcf4a0b6dfaf}
.hierarchical-3:primary {-sfsymbols-variable-threshold:0.61;-sfsymbols-motion-group:1;-sfsymbols-layer-tags:7971fcf4a0b6dfaf}
.hierarchical-4:primary {-sfsymbols-variable-threshold:0.81;-sfsymbols-motion-group:0;-sfsymbols-layer-tags:7971fcf4a0b6dfaf}

.SFSymbolsPreviewWireframe {fill:none;opacity:1.0;stroke:black;stroke-width:0.5}
</style>
 <g id="Notes">
  <rect height="2200" id="artboard" style="fill:white;opacity:1" width="3300" x="0" y="0"/>
  <line style="fill:none;stroke:black;opacity:1;stroke-width:0.5;" x1="263" x2="3036" y1="292" y2="292"/>
  <text style="stroke:none;fill:black;font-family:sans-serif;font-size:13;font-weight:bold;" transform="matrix(1 0 0 1 263 322)">Weight/Scale Variations</text>
  <text style="stroke:none;fill:black;font-family:sans-serif;font-size:13;text-anchor:middle;" transform="matrix(1 0 0 1 559.711 322)">Ultralight</text>
  <text style="stroke:none;fill:black;font-family:sans-serif;font-size:13;text-anchor:middle;" transform="matrix(1 0 0 1 856.422 322)">Thin</text>
  <text style="stroke:none;fill:black;font-family:sans-serif;font-size:13;text-anchor:middle;" transform="matrix(1 0 0 1 1153.13 322)">Light</text>
  <text style="stroke:none;fill:black;font-family:sans-serif;font-size:13;text-anchor:middle;" transform="matrix(1 0 0 1 1449.84 322)">Regular</text>
  <text style="stroke:none;fill:black;font-family:sans-serif;font-size:13;text-anchor:middle;" transform="matrix(1 0 0 1 1746.56 322)">Medium</text>
  <text style="stroke:none;fill:black;font-family:sans-serif;font-size:13;text-anchor:middle;" transform="matrix(1 0 0 1 2043.27 322)">Semibold</text>
  <text style="stroke:none;fill:black;font-family:sans-serif;font-size:13;text-anchor:middle;" transform="matrix(1 0 0 1 2339.98 322)">Bold</text>
  <text style="stroke:none;fill:black;font-family:sans-serif;font-size:13;text-anchor:middle;" transform="matrix(1 0 0 1 2636.69 322)">Heavy</text>
  <text style="stroke:none;fill:black;font-family:sans-serif;font-size:13;text-anchor:middle;" transform="matrix(1 0 0 1 2933.4 322)">Black</text>
  <line style="fill:none;stroke:black;opacity:1;stroke-width:0.5;" x1="263" x2="3036" y1="1903" y2="1903"/>
  <g transform="matrix(0.2 0 0 0.2 263 1933)">
   <path d="m46.2402 4.15039c21.7773 0 39.4531-17.627 39.4531-39.4043s-17.6758-39.4043-39.4531-39.4043c-21.7285 0-39.4043 17.627-39.4043 39.4043s17.6758 39.4043 39.4043 39.4043Zm0-7.42188c-17.6758 0-31.9336-14.3066-31.9336-31.9824s14.2578-31.9824 31.9336-31.9824 31.9824 14.3066 31.9824 31.9824-14.3066 31.9824-31.9824 31.9824Zm-17.9688-31.9824c0 2.14844 1.51367 3.61328 3.75977 3.61328h10.498v10.5957c0 2.19727 1.46484 3.71094 3.61328 3.71094 2.24609 0 3.71094-1.51367 3.71094-3.71094v-10.5957h10.5957c2.19727 0 3.71094-1.46484 3.71094-3.61328 0-2.19727-1.51367-3.71094-3.71094-3.71094h-10.5957v-10.5469c0-2.24609-1.46484-3.75977-3.71094-3.75977-2.14844 0-3.61328 1.51367-3.61328 3.75977v10.5469h-10.498c-2.24609 0-3.75977 1.51367-3.75977 3.71094Z"/>
  </g>
  <g transform="matrix(0.2 0 0 0.2 281.506 1933)">
   <path d="m58.5449 14.5508c27.4902 0 49.8047-22.3145 49.8047-49.8047s-22.3145-49.8047-49.8047-49.8047-49.8047 22.3145-49.8047 49.8047 22.3145 49.8047 49.8047 49.8047Zm0-8.30078c-22.9492 0-41.5039-18.5547-41.5039-41.5039s18.5547-41.5039 41.5039-41.5039 41.5039 18.5547 41.5039 41.5039-18.5547 41.5039-41.5039 41.5039Zm-22.6562-41.5039c0 2.39258 1.66016 4.00391 4.15039 4.00391h14.3555v14.4043c0 2.44141 1.66016 4.15039 4.05273 4.15039 2.44141 0 4.15039-1.66016 4.15039-4.15039v-14.4043h14.4043c2.44141 0 4.15039-1.61133 4.15039-4.00391 0-2.44141-1.70898-4.15039-4.15039-4.15039h-14.4043v-14.3555c0-2.49023-1.70898-4.19922-4.15039-4.19922-2.39258 0-4.05273 1.70898-4.05273 4.19922v14.3555h-14.3555c-2.49023 0-4.15039 1.70898-4.15039 4.15039Z"/>
  </g>
  <g transform="matrix(0.2 0 0 0.2 304.924 1933)">
   <path d="m74.8535 28.3203c35.1074 0 63.623-28.4668 63.623-63.5742s-28.5156-63.623-63.623-63.623-63.5742 28.5156-63.5742 63.623 28.4668 63.5742 63.5742 63.5742Zm0-9.08203c-30.127 0-54.4922-24.3652-54.4922-54.4922s24.3652-54.4922 54.4922-54.4922 54.4922 24.3652 54.4922 54.4922-24.3652 54.4922-54.4922 54.4922Zm-28.8574-54.4922c0 2.58789 1.85547 4.39453 4.58984 4.39453h19.7266v19.7754c0 2.68555 1.85547 4.58984 4.44336 4.58984 2.68555 0 4.54102-1.85547 4.54102-4.58984v-19.7754h19.7754c2.68555 0 4.58984-1.80664 4.58984-4.39453 0-2.73438-1.85547-4.58984-4.58984-4.58984h-19.7754v-19.7266c0-2.73438-1.85547-4.63867-4.54102-4.63867-2.58789 0-4.44336 1.9043-4.44336 4.63867v19.7266h-19.7266c-2.73438 0-4.58984 1.85547-4.58984 4.58984Z"/>
  </g>
  <text style="stroke:none;fill:black;font-family:sans-serif;font-size:13;font-weight:bold;" transform="matrix(1 0 0 1 263 1953)">Design Variations</text>
  <text style="stroke:none;fill:black;font-family:sans-serif;font-size:13;" transform="matrix(1 0 0 1 263 1971)">Symbols are supported in up to nine weights and three scales.</text>
  <text style="stroke:none;fill:black;font-family:sans-serif;font-size:13;" transform="matrix(1 0 0 1 263 1989)">For optimal layout with text and other symbols, vertically align</text>
  <text style="stroke:none;fill:black;font-family:sans-serif;font-size:13;" transform="matrix(1 0 0 1 263 2007)">symbols with the adjacent text.</text>
  <line style="fill:none;stroke:#00AEEF;stroke-width:0.5;opacity:1.0;" x1="776" x2="776" y1="1919" y2="1933"/>
  <g transform="matrix(0.2 0 0 0.2 776 1933)">
   <path d="m16.5527 0.78125c2.58789 0 3.85742-0.976562 4.78516-3.71094l6.29883-17.2363h28.8086l6.29883 17.2363c0.927734 2.73438 2.19727 3.71094 4.73633 3.71094 2.58789 0 4.24805-1.5625 4.24805-4.00391 0-0.830078-0.146484-1.61133-0.537109-2.63672l-22.9004-60.9863c-1.12305-2.97852-3.125-4.49219-6.25-4.49219-3.02734 0-5.07812 1.46484-6.15234 4.44336l-22.9004 61.084c-0.390625 1.02539-0.537109 1.80664-0.537109 2.63672 0 2.44141 1.5625 3.95508 4.10156 3.95508Zm13.4766-28.3691 11.8652-32.8613h0.244141l11.8652 32.8613Z"/>
  </g>
  <line style="fill:none;stroke:#00AEEF;stroke-width:0.5;opacity:1.0;" x1="792.836" x2="792.836" y1="1919" y2="1933"/>
  <text style="stroke:none;fill:black;font-family:sans-serif;font-size:13;font-weight:bold;" transform="matrix(1 0 0 1 776 1953)">Margins</text>
  <text style="stroke:none;fill:black;font-family:sans-serif;font-size:13;" transform="matrix(1 0 0 1 776 1971)">Leading and trailing margins on the left and right side of each symbol</text>
  <text style="stroke:none;fill:black;font-family:sans-serif;font-size:13;" transform="matrix(1 0 0 1 776 1989)">can be adjusted by modifying the x-location of the margin guidelines.</text>
  <text style="stroke:none;fill:black;font-family:sans-serif;font-size:13;" transform="matrix(1 0 0 1 776 2007)">Modifications are automatically applied proportionally to all</text>
  <text style="stroke:none;fill:black;font-family:sans-serif;font-size:13;" transform="matrix(1 0 0 1 776 2025)">scales and weights.</text>
  <g transform="matrix(0.2 0 0 0.2 1289 1933)">
   <path d="m14.209 9.32617 8.49609 8.54492c4.29688 4.3457 9.22852 4.05273 13.8672-1.07422l53.4668-58.9355-4.83398-4.88281-53.0762 58.3984c-1.75781 2.00195-3.41797 2.49023-5.76172 0.146484l-5.85938-5.81055c-2.34375-2.29492-1.80664-4.00391 0.195312-5.81055l57.373-54.0039-4.88281-4.83398-57.959 54.4434c-4.93164 4.58984-5.32227 9.47266-1.02539 13.8184Zm32.0801-90.9668c-2.09961 2.05078-2.24609 4.93164-1.07422 6.88477 1.17188 1.80664 3.4668 2.97852 6.68945 2.14844 7.32422-1.70898 14.9414-2.00195 22.0703 2.68555l-2.92969 7.27539c-1.70898 4.15039-0.830078 7.08008 1.85547 9.81445l11.4746 11.5723c2.44141 2.44141 4.49219 2.53906 7.32422 2.05078l5.32227-0.976562 3.32031 3.36914-0.195312 2.7832c-0.195312 2.49023 0.439453 4.39453 2.88086 6.78711l3.80859 3.71094c2.39258 2.39258 5.46875 2.53906 7.8125 0.195312l14.5508-14.5996c2.34375-2.34375 2.24609-5.32227-0.146484-7.71484l-3.85742-3.80859c-2.39258-2.39258-4.24805-3.17383-6.64062-2.97852l-2.88086 0.244141-3.22266-3.17383 1.2207-5.61523c0.634766-2.83203-0.146484-5.0293-3.07617-7.95898l-10.9863-10.9375c-16.6992-16.6016-38.8672-16.2109-53.3203-1.75781Zm7.4707 1.85547c12.1582-8.88672 28.6133-7.37305 39.7461 3.75977l12.1582 12.0605c1.17188 1.17188 1.36719 2.09961 1.02539 3.80859l-1.61133 7.42188 7.51953 7.42188 4.93164-0.292969c1.26953-0.0488281 1.66016 0.0488281 2.63672 1.02539l2.88086 2.88086-12.207 12.207-2.88086-2.88086c-0.976562-0.976562-1.12305-1.36719-1.07422-2.68555l0.341797-4.88281-7.4707-7.42188-7.61719 1.26953c-1.61133 0.341797-2.34375 0.195312-3.56445-0.976562l-10.0098-10.0098c-1.26953-1.17188-1.41602-2.00195-0.634766-3.85742l4.39453-10.4492c-7.8125-7.27539-17.9688-10.4004-28.125-7.42188-0.78125 0.195312-1.07422-0.439453-0.439453-0.976562Z"/>
  </g>
  <text style="stroke:none;fill:black;font-family:sans-serif;font-size:13;font-weight:bold;" transform="matrix(1 0 0 1 1289 1953)">Exporting</text>
  <text style="stroke:none;fill:black;font-family:sans-serif;font-size:13;" transform="matrix(1 0 0 1 1289 1971)">Symbols should be outlined when exporting to ensure the</text>
  <text style="stroke:none;fill:black;font-family:sans-serif;font-size:13;" transform="matrix(1 0 0 1 1289 1989)">design is preserved when submitting to Xcode.</text>
  <text id="template-version" style="stroke:none;fill:black;font-family:sans-serif;font-size:13;text-anchor:end;" transform="matrix(1 0 0 1 3036 1933)">Template v.6.0</text>
  <text style="stroke:none;fill:black;font-family:sans-serif;font-size:13;text-anchor:end;" transform="matrix(1 0 0 1 3036 1951)">Requires Xcode 16 or greater</text>
  <text id="descriptive-name" style="stroke:none;fill:black;font-family:sans-serif;font-size:13;text-anchor:end;" transform="matrix(1 0 0 1 3036 1969)">Generated from satellite.guard</text>
  <text style="stroke:none;fill:black;font-family:sans-serif;font-size:13;text-anchor:end;" transform="matrix(1 0 0 1 3036 1987)">Typeset at 100.0 points</text>
  <text style="stroke:none;fill:black;font-family:sans-serif;font-size:13;" transform="matrix(1 0 0 1 263 726)">Small</text>
  <text style="stroke:none;fill:black;font-family:sans-serif;font-size:13;" transform="matrix(1 0 0 1 263 1156)">Medium</text>
  <text style="stroke:none;fill:black;font-family:sans-serif;font-size:13;" transform="matrix(1 0 0 1 263 1586)">Large</text>
 </g>
 <g id="Guides">
  <g id="H-reference" style="fill:#27AAE1;stroke:none;" transform="matrix(1 0 0 1 339 696)">
   <path d="M0.993654 0L3.63775 0L29.3281-67.1323L30.0303-67.1323L30.0303-70.459L28.1226-70.459ZM11.6885-24.4799L46.9815-24.4799L46.2315-26.7285L12.4385-26.7285ZM55.1196 0L57.7637 0L30.6382-70.459L29.4326-70.459L29.4326-67.1323Z"/>
  </g>
  <line id="Baseline-S" style="fill:none;stroke:#27AAE1;opacity:1;stroke-width:0.5;" x1="263" x2="3036" y1="696" y2="696"/>
  <line id="Capline-S" style="fill:none;stroke:#27AAE1;opacity:1;stroke-width:0.5;" x1="263" x2="3036" y1="625.541" y2="625.541"/>
  <g id="H-reference" style="fill:#27AAE1;stroke:none;" transform="matrix(1 0 0 1 339 1126)">
   <path d="M0.993654 0L3.63775 0L29.3281-67.1323L30.0303-67.1323L30.0303-70.459L28.1226-70.459ZM11.6885-24.4799L46.9815-24.4799L46.2315-26.7285L12.4385-26.7285ZM55.1196 0L57.7637 0L30.6382-70.459L29.4326-70.459L29.4326-67.1323Z"/>
  </g>
  <line id="Baseline-M" style="fill:none;stroke:#27AAE1;opacity:1;stroke-width:0.5;" x1="263" x2="3036" y1="1126" y2="1126"/>
  <line id="Capline-M" style="fill:none;stroke:#27AAE1;opacity:1;stroke-width:0.5;" x1="263" x2="3036" y1="1055.54" y2="1055.54"/>
  <g id="H-reference" style="fill:#27AAE1;stroke:none;" transform="matrix(1 0 0 1 339 1556)">
   <path d="M0.993654 0L3.63775 0L29.3281-67.1323L30.0303-67.1323L30.0303-70.459L28.1226-70.459ZM11.6885-24.4799L46.9815-24.4799L46.2315-26.7285L12.4385-26.7285ZM55.1196 0L57.7637 0L30.6382-70.459L29.4326-70.459L29.4326-67.1323Z"/>
  </g>
  <line id="Baseline-L" style="fill:none;stroke:#27AAE1;opacity:1;stroke-width:0.5;" x1="263" x2="3036" y1="1556" y2="1556"/>
  <line id="Capline-L" style="fill:none;stroke:#27AAE1;opacity:1;stroke-width:0.5;" x1="263" x2="3036" y1="1485.54" y2="1485.54"/>
  <line id="right-margin-Black-S" style="fill:none;stroke:#00AEEF;stroke-width:0.5;opacity:1.0;" x1="2975.59" x2="2975.59" y1="600.785" y2="720.121"/>
  <line id="left-margin-Black-S" style="fill:none;stroke:#00AEEF;stroke-width:0.5;opacity:1.0;" x1="2891.21" x2="2891.21" y1="600.785" y2="720.121"/>
  <line id="right-margin-Regular-S" style="fill:none;stroke:#FF3B30;stroke-width:0.5;opacity:1.0;" x1="1484.98" x2="1484.98" y1="600.785" y2="720.121"/>
  <line id="left-margin-Regular-S" style="fill:none;stroke:#FF3B30;stroke-width:0.5;opacity:1.0;" x1="1414.71" x2="1414.71" y1="600.785" y2="720.121"/>
  <line id="right-margin-Ultralight-S" style="fill:none;stroke:#FF3B30;stroke-width:0.5;opacity:1.0;" x1="591.074" x2="591.074" y1="600.785" y2="720.121"/>
  <line id="left-margin-Ultralight-S" style="fill:none;stroke:#00AEEF;stroke-width:0.5;opacity:1.0;" x1="528.348" x2="528.348" y1="600.785" y2="720.121"/>
 </g>
 <g id="Symbols">
  <g id="Black-S" transform="matrix(1 0 0 1 2891.21 696)">
   <path class="monochrome-0 multicolor-0:tintColor hierarchical-0:primary SFSymbolsPreviewWireframe" d="M68.6279-68.746L76.2073-61.1676C78.4381-58.9388 78.4381-55.3176 76.2073-53.0868L74.1863-51.0668C73.0714-49.9519 71.2613-49.9519 70.1454-51.0668L58.5251-62.6851C57.4102-63.8 57.4102-65.6101 58.5251-66.726L60.5461-68.746C62.7769-70.9768 66.3981-70.9768 68.6279-68.746Z"/>
   <path class="monochrome-1 multicolor-1:tintColor hierarchical-1:primary SFSymbolsPreviewWireframe" d="M55.7636-59.9205L67.3839-48.3022C68.4988-47.1863 68.4988-45.3762 67.3839-44.2613L63.3419-40.2214C62.227-39.1055 60.4169-39.1055 59.301-40.2214L47.6807-51.8397C46.5658-52.9536 46.5658-54.7647 47.6807-55.8796L51.7216-59.9205C52.8376-61.0344 54.6476-61.0344 55.7636-59.9205Z"/>
   <path class="monochrome-2 multicolor-2:tintColor hierarchical-2:primary SFSymbolsPreviewWireframe" d="M21.2881-43.1434C21.2366-43.1857 21.1882-43.2322 21.1387-43.2806L17.7123-46.706C16.7669-47.6514 16.7669-49.1871 17.7123-50.1325L27.6981-60.1173C28.6435-61.0617 30.1801-61.0617 31.1245-60.1173L34.552-56.6898C34.5994-56.6424 34.6458-56.5919 34.6892-56.5415C36.2763-56.6454 37.8977-56.0925 39.1095-54.8817L62.3441-31.6512C64.2349-29.7604 64.5224-26.8717 63.2077-24.6782L70.9405-21.9298C71.3189-21.7956 71.6014-21.4778 71.6902-21.0863C71.7779-20.6948 71.6589-20.2862 71.3764-20.0026L57.837-6.4663C57.5525-6.18076 57.1408-6.06271 56.7483-6.1515C56.3558-6.24029 56.037-6.5228 55.9008-6.90318L53.1554-14.6279C50.9619-13.3152 48.0732-13.6038 46.1834-15.4925L22.9488-38.7231C21.7361-39.9348 21.1831-41.5563 21.2881-43.1434Z"/>
   <path class="monochrome-3 multicolor-3:tintColor hierarchical-3:primary SFSymbolsPreviewWireframe" d="M25.9919-30.1539L37.6112-18.5366C38.7271-17.4207 38.7271-15.6106 37.6112-14.4947L33.5703-10.4548C32.4553-9.33984 30.6453-9.33984 29.5293-10.4548L17.909-22.073C16.7941-23.188 16.7941-24.9991 17.909-26.113L21.95-30.1539C23.0659-31.2688 24.876-31.2688 25.9919-30.1539Z"/>
   <path class="monochrome-4 multicolor-4:tintColor hierarchical-4:primary SFSymbolsPreviewWireframe" d="M15.1424-19.3115L26.7627-7.6932C27.8787-6.57829 27.8787-4.76719 26.7627-3.65228L24.7428-1.63232C22.513 0.597503 18.8897 0.597503 16.6599-1.63232L9.08054-9.20969C6.84971-11.4405 6.84971-15.0617 9.08054-17.2905L11.1015-19.3115C12.2174-20.4264 14.0275-20.4264 15.1424-19.3115Z"/>
  </g>
  <g id="Regular-S" transform="matrix(1 0 0 1 1414.71 696)">
   <path class="monochrome-0 multicolor-0:tintColor hierarchical-0:primary SFSymbolsPreviewWireframe" d="M61.1853-68.747L68.7604-61.1729C70.9899-58.9453 70.9899-55.3262 68.7604-53.0966L66.7405-51.0778C65.6263-49.9635 63.8172-49.9635 62.7019-51.0778L51.0881-62.6895C49.9739-63.8038 49.9739-65.6129 51.0881-66.7281L53.108-68.747C55.3375-70.9765 58.9567-70.9765 61.1853-68.747Z"/>
   <path class="monochrome-1 multicolor-1:tintColor hierarchical-1:primary SFSymbolsPreviewWireframe" d="M48.3282-59.9265L59.9419-48.3148C61.0562-47.1995 61.0562-45.3904 59.9419-44.2761L55.9022-40.2385C54.788-39.1232 52.9789-39.1232 51.8636-40.2385L40.2499-51.8502C39.1356-52.9635 39.1356-54.7736 40.2499-55.8878L44.2885-59.9265C45.4038-61.0398 47.2129-61.0398 48.3282-59.9265Z"/>
   <path class="monochrome-2 multicolor-2:tintColor hierarchical-2:primary SFSymbolsPreviewWireframe" d="M13.8721-43.1588C13.8207-43.2012 13.7723-43.2476 13.7229-43.296L10.2984-46.7195C9.3535-47.6643 9.3535-49.1991 10.2984-50.144L20.2785-60.1231C21.2234-61.067 22.7592-61.067 23.703-60.1231L27.1286-56.6976C27.176-56.6502 27.2223-56.5998 27.2657-56.5494C28.8519-56.6532 30.4724-56.1006 31.6835-54.8905L54.9049-31.6731C56.7947-29.7834 57.0821-26.8963 55.7681-24.7041L63.4965-21.9572C63.8747-21.8231 64.157-21.5054 64.2458-21.1142C64.3335-20.7229 64.2145-20.3145 63.9321-20.0312L50.4004-6.50246C50.116-6.21709 49.7046-6.0991 49.3124-6.18784C48.9201-6.27658 48.6014-6.55894 48.4653-6.9391L45.7214-14.6594C43.5292-13.3475 40.6421-13.6359 38.7534-15.5236L15.532-38.741C14.3199-39.9521 13.7673-41.5726 13.8721-43.1588Z"/>
   <path class="monochrome-3 multicolor-3:tintColor hierarchical-3:primary SFSymbolsPreviewWireframe" d="M18.5733-30.1767L30.186-18.566C31.3013-17.4507 31.3013-15.6416 30.186-14.5263L26.1474-10.4887C25.0331-9.37439 23.224-9.37439 22.1087-10.4887L10.495-22.1004C9.38072-23.2147 9.38072-25.0248 10.495-26.138L14.5336-30.1767C15.6489-31.291 17.458-31.291 18.5733-30.1767Z"/>
   <path class="monochrome-4 multicolor-4:tintColor hierarchical-4:primary SFSymbolsPreviewWireframe" d="M7.72997-19.3404L19.3437-7.72868C20.459-6.6144 20.459-4.80432 19.3437-3.69004L17.3249-1.67122C15.0963 0.557344 11.4762 0.557344 9.24661-1.67122L1.67151-9.2443C-0.558067-11.4739-0.558067-15.093 1.67151-17.3206L3.69133-19.3404C4.80662-20.4547 6.61569-20.4547 7.72997-19.3404Z"/>
  </g>
  <g id="Ultralight-S" transform="matrix(1 0 0 1 528.348 696)">
   <path class="monochrome-0 multicolor-0:tintColor hierarchical-0:primary SFSymbolsPreviewWireframe" d="M54.4909-65.7045L61.2371-58.8937C63.2223-56.8903 63.2223-53.6356 61.2371-51.6311L59.4382-49.8158C58.4461-48.814 56.8344-48.814 55.8413-49.8158L45.4983-60.2573C44.5062-61.2591 44.5062-62.8864 45.4983-63.8891L47.2972-65.7045C49.2824-67.709 52.5057-67.709 54.4909-65.7045Z"/>
   <path class="monochrome-1 multicolor-1:tintColor hierarchical-1:primary SFSymbolsPreviewWireframe" d="M43.0403-57.7724L53.3834-47.3308C54.3755-46.3281 54.3755-44.7018 53.3834-43.699L49.7855-40.0682C48.7934-39.0655 47.1818-39.0655 46.1887-40.0682L35.8456-50.5098C34.8535-51.5116 34.8535-53.1389 35.8456-54.1406L39.4424-57.7724C40.4355-58.7741 42.0472-58.7741 43.0403-57.7724Z"/>
   <path class="monochrome-2 multicolor-2:tintColor hierarchical-2:primary SFSymbolsPreviewWireframe" d="M12.3543-42.6942C12.3097-42.7331 12.2662-42.774 12.2226-42.8179L9.17145-45.8967C8.3302-46.7462 8.3302-48.1261 9.17145-48.9755L18.0598-57.9492C18.9011-58.7987 20.2687-58.7987 21.11-57.9492L24.1602-54.8694C24.2027-54.8265 24.2442-54.7815 24.2827-54.7355C25.6949-54.8296 27.1385-54.3328 28.2166-53.2441L48.8977-32.3661C50.5802-30.6673 50.8363-28.0709 49.6661-26.0991L56.549-23.6296C56.8861-23.5089 57.1371-23.2227 57.2161-22.8711C57.294-22.5195 57.1888-22.1525 56.9367-21.897L44.8858-9.73199C44.6327-9.47542 44.2662-9.36912 43.917-9.44885C43.5677-9.52858 43.2833-9.7831 43.1628-10.1245L40.719-17.0672C38.7662-15.8876 36.1949-16.1462 34.5134-17.844L13.8333-38.722C12.7541-39.8107 12.2621-41.2683 12.3543-42.6942Z"/>
   <path class="monochrome-3 multicolor-3:tintColor hierarchical-3:primary SFSymbolsPreviewWireframe" d="M16.5413-31.0209L26.8834-20.5794C27.8765-19.5766 27.8765-17.9503 26.8834-16.9476L23.2865-13.3168C22.2944-12.314 20.6828-12.314 19.6897-13.3168L9.34659-23.7583C8.3545-24.7601 8.3545-26.3874 9.34659-27.3891L12.9444-31.0209C13.9376-32.0227 15.5482-32.0227 16.5413-31.0209Z"/>
   <path class="monochrome-4 multicolor-4:tintColor hierarchical-4:primary SFSymbolsPreviewWireframe" d="M6.88458-21.2765L17.2277-10.8349C18.2208-9.83216 18.2208-8.20485 17.2277-7.20312L15.4297-5.38773C13.4445-3.38323 10.2213-3.38323 8.23504-5.38773L1.48982-12.1975C-0.495381-14.202-0.495381-17.4566 1.48982-19.4601L3.28773-21.2765C4.28084-22.2782 5.89248-22.2782 6.88458-21.2765Z"/>
  </g>
 </g>
</svg>
