<?xml version="1.0" encoding="UTF-8"?>
<!--Generator: Apple Native CoreSVG 341-->
<!DOCTYPE svg
PUBLIC "-//W3C//DTD SVG 1.1//EN"
       "http://www.w3.org/Graphics/SVG/1.1/DTD/svg11.dtd">
<svg version="1.1" xmlns="http://www.w3.org/2000/svg" xmlns:xlink="http://www.w3.org/1999/xlink" viewBox="0 0 3300 2200">
 <!--glyph: "", point size: 100.0, font version: "20.0d8e1", template writer version: "138.0.0"-->
 <style>.monochrome-0 {-sfsymbols-variable-threshold:0.0;-sfsymbols-motion-group:4;-sfsymbols-layer-tags:-6f35f05fead61b30}
.monochrome-1 {-sfsymbols-variable-threshold:0.21;-sfsymbols-motion-group:3;-sfsymbols-layer-tags:-6f35f05fead61b30}
.monochrome-2 {-sfsymbols-variable-threshold:0.41;-sfsymbols-motion-group:2;-sfsymbols-always-pulses:true;-sfsymbols-layer-tags:-6f35f05fead61b30}
.monochrome-3 {-sfsymbols-variable-threshold:0.61;-sfsymbols-motion-group:1;-sfsymbols-layer-tags:-6f35f05fead61b30}
.monochrome-4 {-sfsymbols-variable-threshold:0.81;-sfsymbols-motion-group:0;-sfsymbols-layer-tags:-6f35f05fead61b30}

.multicolor-0:tintColor {-sfsymbols-variable-threshold:0.0;-sfsymbols-motion-group:4;-sfsymbols-layer-tags:-6f35f05fead61b30}
.multicolor-1:tintColor {-sfsymbols-variable-threshold:0.21;-sfsymbols-motion-group:3;-sfsymbols-layer-tags:-6f35f05fead61b30}
.multicolor-2:tintColor {-sfsymbols-variable-threshold:0.41;-sfsymbols-motion-group:2;-sfsymbols-always-pulses:true;-sfsymbols-layer-tags:-6f35f05fead61b30}
.multicolor-3:tintColor {-sfsymbols-variable-threshold:0.61;-sfsymbols-motion-group:1;-sfsymbols-layer-tags:-6f35f05fead61b30}
.multicolor-4:tintColor {-sfsymbols-variable-threshold:0.81;-sfsymbols-motion-group:0;-sfsymbols-layer-tags:-6f35f05fead61b30}

.hierarchical-0:primary {-sfsymbols-variable-threshold:0.0;-sfsymbols-motion-group:4;-sfsymbols-layer-tags:-6f35f05fead61b30}
.hierarchical-1:primary {-sfsymbols-variable-threshold:0.21;-sfsymbols-motion-group:3;-sfsymbols-layer-tags:-6f35f05fead61b30}
.hierarchical-2:primary {-sfsymbols-variable-threshold:0.41;-sfsymbols-motion-group:2;-sfsymbols-layer-tags:-6f35f05fead61b30}
.hierarchical-3:primary {-sfsymbols-variable-threshold:0.61;-sfsymbols-motion-group:1;-sfsymbols-layer-tags:-6f35f05fead61b30}
.hierarchical-4:primary {-sfsymbols-variable-threshold:0.81;-sfsymbols-motion-group:0;-sfsymbols-layer-tags:-6f35f05fead61b30}

.SFSymbolsPreviewWireframe {fill:none;opacity:1.0;stroke:black;stroke-width:0.5}
</style>
 <g id="Notes">
  <rect height="2200" id="artboard" style="fill:white;opacity:1" width="3300" x="0" y="0"/>
  <line style="fill:none;stroke:black;opacity:1;stroke-width:0.5;" x1="263" x2="3036" y1="292" y2="292"/>
  <text style="stroke:none;fill:black;font-family:sans-serif;font-size:13;font-weight:bold;" transform="matrix(1 0 0 1 263 322)">Weight/Scale Variations</text>
  <text style="stroke:none;fill:black;font-family:sans-serif;font-size:13;text-anchor:middle;" transform="matrix(1 0 0 1 559.711 322)">Ultralight</text>
  <text style="stroke:none;fill:black;font-family:sans-serif;font-size:13;text-anchor:middle;" transform="matrix(1 0 0 1 856.422 322)">Thin</text>
  <text style="stroke:none;fill:black;font-family:sans-serif;font-size:13;text-anchor:middle;" transform="matrix(1 0 0 1 1153.13 322)">Light</text>
  <text style="stroke:none;fill:black;font-family:sans-serif;font-size:13;text-anchor:middle;" transform="matrix(1 0 0 1 1449.84 322)">Regular</text>
  <text style="stroke:none;fill:black;font-family:sans-serif;font-size:13;text-anchor:middle;" transform="matrix(1 0 0 1 1746.56 322)">Medium</text>
  <text style="stroke:none;fill:black;font-family:sans-serif;font-size:13;text-anchor:middle;" transform="matrix(1 0 0 1 2043.27 322)">Semibold</text>
  <text style="stroke:none;fill:black;font-family:sans-serif;font-size:13;text-anchor:middle;" transform="matrix(1 0 0 1 2339.98 322)">Bold</text>
  <text style="stroke:none;fill:black;font-family:sans-serif;font-size:13;text-anchor:middle;" transform="matrix(1 0 0 1 2636.69 322)">Heavy</text>
  <text style="stroke:none;fill:black;font-family:sans-serif;font-size:13;text-anchor:middle;" transform="matrix(1 0 0 1 2933.4 322)">Black</text>
  <line style="fill:none;stroke:black;opacity:1;stroke-width:0.5;" x1="263" x2="3036" y1="1903" y2="1903"/>
  <g transform="matrix(0.2 0 0 0.2 263 1933)">
   <path d="m46.2402 4.15039c21.7773 0 39.4531-17.627 39.4531-39.4043s-17.6758-39.4043-39.4531-39.4043c-21.7285 0-39.4043 17.627-39.4043 39.4043s17.6758 39.4043 39.4043 39.4043Zm0-7.42188c-17.6758 0-31.9336-14.3066-31.9336-31.9824s14.2578-31.9824 31.9336-31.9824 31.9824 14.3066 31.9824 31.9824-14.3066 31.9824-31.9824 31.9824Zm-17.9688-31.9824c0 2.14844 1.51367 3.61328 3.75977 3.61328h10.498v10.5957c0 2.19727 1.46484 3.71094 3.61328 3.71094 2.24609 0 3.71094-1.51367 3.71094-3.71094v-10.5957h10.5957c2.19727 0 3.71094-1.46484 3.71094-3.61328 0-2.19727-1.51367-3.71094-3.71094-3.71094h-10.5957v-10.5469c0-2.24609-1.46484-3.75977-3.71094-3.75977-2.14844 0-3.61328 1.51367-3.61328 3.75977v10.5469h-10.498c-2.24609 0-3.75977 1.51367-3.75977 3.71094Z"/>
  </g>
  <g transform="matrix(0.2 0 0 0.2 281.506 1933)">
   <path d="m58.5449 14.5508c27.4902 0 49.8047-22.3145 49.8047-49.8047s-22.3145-49.8047-49.8047-49.8047-49.8047 22.3145-49.8047 49.8047 22.3145 49.8047 49.8047 49.8047Zm0-8.30078c-22.9492 0-41.5039-18.5547-41.5039-41.5039s18.5547-41.5039 41.5039-41.5039 41.5039 18.5547 41.5039 41.5039-18.5547 41.5039-41.5039 41.5039Zm-22.6562-41.5039c0 2.39258 1.66016 4.00391 4.15039 4.00391h14.3555v14.4043c0 2.44141 1.66016 4.15039 4.05273 4.15039 2.44141 0 4.15039-1.66016 4.15039-4.15039v-14.4043h14.4043c2.44141 0 4.15039-1.61133 4.15039-4.00391 0-2.44141-1.70898-4.15039-4.15039-4.15039h-14.4043v-14.3555c0-2.49023-1.70898-4.19922-4.15039-4.19922-2.39258 0-4.05273 1.70898-4.05273 4.19922v14.3555h-14.3555c-2.49023 0-4.15039 1.70898-4.15039 4.15039Z"/>
  </g>
  <g transform="matrix(0.2 0 0 0.2 304.924 1933)">
   <path d="m74.8535 28.3203c35.1074 0 63.623-28.4668 63.623-63.5742s-28.5156-63.623-63.623-63.623-63.5742 28.5156-63.5742 63.623 28.4668 63.5742 63.5742 63.5742Zm0-9.08203c-30.127 0-54.4922-24.3652-54.4922-54.4922s24.3652-54.4922 54.4922-54.4922 54.4922 24.3652 54.4922 54.4922-24.3652 54.4922-54.4922 54.4922Zm-28.8574-54.4922c0 2.58789 1.85547 4.39453 4.58984 4.39453h19.7266v19.7754c0 2.68555 1.85547 4.58984 4.44336 4.58984 2.68555 0 4.54102-1.85547 4.54102-4.58984v-19.7754h19.7754c2.68555 0 4.58984-1.80664 4.58984-4.39453 0-2.73438-1.85547-4.58984-4.58984-4.58984h-19.7754v-19.7266c0-2.73438-1.85547-4.63867-4.54102-4.63867-2.58789 0-4.44336 1.9043-4.44336 4.63867v19.7266h-19.7266c-2.73438 0-4.58984 1.85547-4.58984 4.58984Z"/>
  </g>
  <text style="stroke:none;fill:black;font-family:sans-serif;font-size:13;font-weight:bold;" transform="matrix(1 0 0 1 263 1953)">Design Variations</text>
  <text style="stroke:none;fill:black;font-family:sans-serif;font-size:13;" transform="matrix(1 0 0 1 263 1971)">Symbols are supported in up to nine weights and three scales.</text>
  <text style="stroke:none;fill:black;font-family:sans-serif;font-size:13;" transform="matrix(1 0 0 1 263 1989)">For optimal layout with text and other symbols, vertically align</text>
  <text style="stroke:none;fill:black;font-family:sans-serif;font-size:13;" transform="matrix(1 0 0 1 263 2007)">symbols with the adjacent text.</text>
  <line style="fill:none;stroke:#00AEEF;stroke-width:0.5;opacity:1.0;" x1="776" x2="776" y1="1919" y2="1933"/>
  <g transform="matrix(0.2 0 0 0.2 776 1933)">
   <path d="m16.5527 0.78125c2.58789 0 3.85742-0.976562 4.78516-3.71094l6.29883-17.2363h28.8086l6.29883 17.2363c0.927734 2.73438 2.19727 3.71094 4.73633 3.71094 2.58789 0 4.24805-1.5625 4.24805-4.00391 0-0.830078-0.146484-1.61133-0.537109-2.63672l-22.9004-60.9863c-1.12305-2.97852-3.125-4.49219-6.25-4.49219-3.02734 0-5.07812 1.46484-6.15234 4.44336l-22.9004 61.084c-0.390625 1.02539-0.537109 1.80664-0.537109 2.63672 0 2.44141 1.5625 3.95508 4.10156 3.95508Zm13.4766-28.3691 11.8652-32.8613h0.244141l11.8652 32.8613Z"/>
  </g>
  <line style="fill:none;stroke:#00AEEF;stroke-width:0.5;opacity:1.0;" x1="792.836" x2="792.836" y1="1919" y2="1933"/>
  <text style="stroke:none;fill:black;font-family:sans-serif;font-size:13;font-weight:bold;" transform="matrix(1 0 0 1 776 1953)">Margins</text>
  <text style="stroke:none;fill:black;font-family:sans-serif;font-size:13;" transform="matrix(1 0 0 1 776 1971)">Leading and trailing margins on the left and right side of each symbol</text>
  <text style="stroke:none;fill:black;font-family:sans-serif;font-size:13;" transform="matrix(1 0 0 1 776 1989)">can be adjusted by modifying the x-location of the margin guidelines.</text>
  <text style="stroke:none;fill:black;font-family:sans-serif;font-size:13;" transform="matrix(1 0 0 1 776 2007)">Modifications are automatically applied proportionally to all</text>
  <text style="stroke:none;fill:black;font-family:sans-serif;font-size:13;" transform="matrix(1 0 0 1 776 2025)">scales and weights.</text>
  <g transform="matrix(0.2 0 0 0.2 1289 1933)">
   <path d="m14.209 9.32617 8.49609 8.54492c4.29688 4.3457 9.22852 4.05273 13.8672-1.07422l53.4668-58.9355-4.83398-4.88281-53.0762 58.3984c-1.75781 2.00195-3.41797 2.49023-5.76172 0.146484l-5.85938-5.81055c-2.34375-2.29492-1.80664-4.00391 0.195312-5.81055l57.373-54.0039-4.88281-4.83398-57.959 54.4434c-4.93164 4.58984-5.32227 9.47266-1.02539 13.8184Zm32.0801-90.9668c-2.09961 2.05078-2.24609 4.93164-1.07422 6.88477 1.17188 1.80664 3.4668 2.97852 6.68945 2.14844 7.32422-1.70898 14.9414-2.00195 22.0703 2.68555l-2.92969 7.27539c-1.70898 4.15039-0.830078 7.08008 1.85547 9.81445l11.4746 11.5723c2.44141 2.44141 4.49219 2.53906 7.32422 2.05078l5.32227-0.976562 3.32031 3.36914-0.195312 2.7832c-0.195312 2.49023 0.439453 4.39453 2.88086 6.78711l3.80859 3.71094c2.39258 2.39258 5.46875 2.53906 7.8125 0.195312l14.5508-14.5996c2.34375-2.34375 2.24609-5.32227-0.146484-7.71484l-3.85742-3.80859c-2.39258-2.39258-4.24805-3.17383-6.64062-2.97852l-2.88086 0.244141-3.22266-3.17383 1.2207-5.61523c0.634766-2.83203-0.146484-5.0293-3.07617-7.95898l-10.9863-10.9375c-16.6992-16.6016-38.8672-16.2109-53.3203-1.75781Zm7.4707 1.85547c12.1582-8.88672 28.6133-7.37305 39.7461 3.75977l12.1582 12.0605c1.17188 1.17188 1.36719 2.09961 1.02539 3.80859l-1.61133 7.42188 7.51953 7.42188 4.93164-0.292969c1.26953-0.0488281 1.66016 0.0488281 2.63672 1.02539l2.88086 2.88086-12.207 12.207-2.88086-2.88086c-0.976562-0.976562-1.12305-1.36719-1.07422-2.68555l0.341797-4.88281-7.4707-7.42188-7.61719 1.26953c-1.61133 0.341797-2.34375 0.195312-3.56445-0.976562l-10.0098-10.0098c-1.26953-1.17188-1.41602-2.00195-0.634766-3.85742l4.39453-10.4492c-7.8125-7.27539-17.9688-10.4004-28.125-7.42188-0.78125 0.195312-1.07422-0.439453-0.439453-0.976562Z"/>
  </g>
  <text style="stroke:none;fill:black;font-family:sans-serif;font-size:13;font-weight:bold;" transform="matrix(1 0 0 1 1289 1953)">Exporting</text>
  <text style="stroke:none;fill:black;font-family:sans-serif;font-size:13;" transform="matrix(1 0 0 1 1289 1971)">Symbols should be outlined when exporting to ensure the</text>
  <text style="stroke:none;fill:black;font-family:sans-serif;font-size:13;" transform="matrix(1 0 0 1 1289 1989)">design is preserved when submitting to Xcode.</text>
  <text id="template-version" style="stroke:none;fill:black;font-family:sans-serif;font-size:13;text-anchor:end;" transform="matrix(1 0 0 1 3036 1933)">Template v.6.0</text>
  <text style="stroke:none;fill:black;font-family:sans-serif;font-size:13;text-anchor:end;" transform="matrix(1 0 0 1 3036 1951)">Requires Xcode 16 or greater</text>
  <text id="descriptive-name" style="stroke:none;fill:black;font-family:sans-serif;font-size:13;text-anchor:end;" transform="matrix(1 0 0 1 3036 1969)">Generated from satellite.guard</text>
  <text style="stroke:none;fill:black;font-family:sans-serif;font-size:13;text-anchor:end;" transform="matrix(1 0 0 1 3036 1987)">Typeset at 100.0 points</text>
  <text style="stroke:none;fill:black;font-family:sans-serif;font-size:13;" transform="matrix(1 0 0 1 263 726)">Small</text>
  <text style="stroke:none;fill:black;font-family:sans-serif;font-size:13;" transform="matrix(1 0 0 1 263 1156)">Medium</text>
  <text style="stroke:none;fill:black;font-family:sans-serif;font-size:13;" transform="matrix(1 0 0 1 263 1586)">Large</text>
 </g>
 <g id="Guides">
  <g id="H-reference" style="fill:#27AAE1;stroke:none;" transform="matrix(1 0 0 1 339 696)">
   <path d="M0.993654 0L3.63775 0L29.3281-67.1323L30.0303-67.1323L30.0303-70.459L28.1226-70.459ZM11.6885-24.4799L46.9815-24.4799L46.2315-26.7285L12.4385-26.7285ZM55.1196 0L57.7637 0L30.6382-70.459L29.4326-70.459L29.4326-67.1323Z"/>
  </g>
  <line id="Baseline-S" style="fill:none;stroke:#27AAE1;opacity:1;stroke-width:0.5;" x1="263" x2="3036" y1="696" y2="696"/>
  <line id="Capline-S" style="fill:none;stroke:#27AAE1;opacity:1;stroke-width:0.5;" x1="263" x2="3036" y1="625.541" y2="625.541"/>
  <g id="H-reference" style="fill:#27AAE1;stroke:none;" transform="matrix(1 0 0 1 339 1126)">
   <path d="M0.993654 0L3.63775 0L29.3281-67.1323L30.0303-67.1323L30.0303-70.459L28.1226-70.459ZM11.6885-24.4799L46.9815-24.4799L46.2315-26.7285L12.4385-26.7285ZM55.1196 0L57.7637 0L30.6382-70.459L29.4326-70.459L29.4326-67.1323Z"/>
  </g>
  <line id="Baseline-M" style="fill:none;stroke:#27AAE1;opacity:1;stroke-width:0.5;" x1="263" x2="3036" y1="1126" y2="1126"/>
  <line id="Capline-M" style="fill:none;stroke:#27AAE1;opacity:1;stroke-width:0.5;" x1="263" x2="3036" y1="1055.54" y2="1055.54"/>
  <g id="H-reference" style="fill:#27AAE1;stroke:none;" transform="matrix(1 0 0 1 339 1556)">
   <path d="M0.993654 0L3.63775 0L29.3281-67.1323L30.0303-67.1323L30.0303-70.459L28.1226-70.459ZM11.6885-24.4799L46.9815-24.4799L46.2315-26.7285L12.4385-26.7285ZM55.1196 0L57.7637 0L30.6382-70.459L29.4326-70.459L29.4326-67.1323Z"/>
  </g>
  <line id="Baseline-L" style="fill:none;stroke:#27AAE1;opacity:1;stroke-width:0.5;" x1="263" x2="3036" y1="1556" y2="1556"/>
  <line id="Capline-L" style="fill:none;stroke:#27AAE1;opacity:1;stroke-width:0.5;" x1="263" x2="3036" y1="1485.54" y2="1485.54"/>
  <line id="right-margin-Black-S" style="fill:none;stroke:#00AEEF;stroke-width:0.5;opacity:1.0;" x1="2975.59" x2="2975.59" y1="600.785" y2="720.121"/>
  <line id="left-margin-Black-S" style="fill:none;stroke:#00AEEF;stroke-width:0.5;opacity:1.0;" x1="2891.21" x2="2891.21" y1="600.785" y2="720.121"/>
  <line id="right-margin-Regular-S" style="fill:none;stroke:#FF3B30;stroke-width:0.5;opacity:1.0;" x1="1484.98" x2="1484.98" y1="600.785" y2="720.121"/>
  <line id="left-margin-Regular-S" style="fill:none;stroke:#00AEEF;stroke-width:0.5;opacity:1.0;" x1="1414.71" x2="1414.71" y1="600.785" y2="720.121"/>
  <line id="right-margin-Ultralight-S" style="fill:none;stroke:#00AEEF;stroke-width:0.5;opacity:1.0;" x1="591.074" x2="591.074" y1="600.785" y2="720.121"/>
  <line id="left-margin-Ultralight-S" style="fill:none;stroke:#00AEEF;stroke-width:0.5;opacity:1.0;" x1="528.348" x2="528.348" y1="600.785" y2="720.121"/>
 </g>
 <g id="Symbols">
  <g id="Black-S" transform="matrix(1 0 0 1 2891.21 696)">
   <path class="monochrome-0 multicolor-0:tintColor hierarchical-0:primary SFSymbolsPreviewWireframe" d="M61.3083-68.4481L68.8202-60.9372C71.0308-58.7278 71.0308-55.1386 68.8202-52.9281L66.8171-50.9261C65.7124-49.8214 63.9178-49.8214 62.812-50.9261L51.2949-62.441C50.1902-63.5457 50.1902-65.3402 51.2949-66.4461L53.298-68.4481C55.5086-70.6586 59.0977-70.6586 61.3083-68.4481Z"/>
   <path class="monochrome-1 multicolor-1:tintColor hierarchical-1:primary SFSymbolsPreviewWireframe" d="M48.5579-59.7006L60.075-48.1858C61.1797-47.0799 61.1797-45.2865 60.075-44.1806L56.0688-40.1766C54.9641-39.0708 53.1695-39.0708 52.0637-40.1766L40.5466-51.6915C39.4419-52.7962 39.4419-54.5908 40.5466-55.6955L44.5517-59.7006C45.6575-60.8053 47.4521-60.8053 48.5579-59.7006Z"/>
   <path class="monochrome-2 multicolor-2:tintColor hierarchical-2:primary SFSymbolsPreviewWireframe" d="M14.3887-43.0725C14.338-43.1154 14.2895-43.1605 14.2411-43.2089L10.8447-46.6042C9.90791-47.541 9.90791-49.0628 10.8447-49.9995L20.7419-59.8956C21.6787-60.8324 23.2016-60.8324 24.1383-59.8956L27.5347-56.4992C27.5821-56.4519 27.6283-56.4023 27.6711-56.3516C29.2436-56.4553 30.8511-55.9074 32.0516-54.7069L55.0802-31.6828C56.9537-29.8093 57.2389-26.9461 55.9358-24.7716L63.6-22.0482C63.9753-21.9152 64.2549-21.5996 64.3428-21.2118C64.4296-20.824 64.3124-20.4193 64.0317-20.1375L50.6129-6.72212C50.3311-6.43918 49.923-6.32194 49.5341-6.40987C49.1452-6.4978 48.8285-6.77848 48.6943-7.15498L45.9731-14.8113C43.7987-13.5104 40.9355-13.7956 39.0631-15.668L16.0345-38.6921C14.8329-39.8926 14.285-41.5 14.3887-43.0725Z"/>
   <path class="monochrome-3 multicolor-3:tintColor hierarchical-3:primary SFSymbolsPreviewWireframe" d="M19.051-30.1994L30.567-18.6845C31.6729-17.5787 31.6729-15.7852 30.567-14.6794L26.5619-10.6754C25.4572-9.56955 23.6626-9.56955 22.5568-10.6754L11.0397-22.1902C9.93496-23.2949 9.93496-25.0895 11.0397-26.1942L15.0448-30.1994C16.1506-31.3041 17.9452-31.3041 19.051-30.1994Z"/>
   <path class="monochrome-4 multicolor-4:tintColor hierarchical-4:primary SFSymbolsPreviewWireframe" d="M8.2982-19.4533L19.8153-7.93842C20.9211-6.83259 20.9211-5.03801 19.8153-3.9333L17.8133-1.93131C15.6028 0.279232 12.0125 0.279232 9.80195-1.93131L2.28995-9.44105C0.0794165-11.6516 0.0794165-15.2407 2.28995-17.4502L4.29308-19.4533C5.39891-20.558 7.19349-20.558 8.2982-19.4533Z"/>
  </g>
  <g id="Regular-S" transform="matrix(1 0 0 1 1414.71 696)">
   <path class="monochrome-0 multicolor-0:tintColor hierarchical-0:primary SFSymbolsPreviewWireframe" d="M61.1023-68.4481L68.6142-60.9372C70.8248-58.7278 70.8248-55.1386 68.6142-52.9281L66.6111-50.9261C65.5064-49.8214 63.7118-49.8214 62.606-50.9261L51.0889-62.441C49.9842-63.5457 49.9842-65.3402 51.0889-66.4461L53.092-68.4481C55.3026-70.6586 58.8917-70.6586 61.1023-68.4481Z"/>
   <path class="monochrome-1 multicolor-1:tintColor hierarchical-1:primary SFSymbolsPreviewWireframe" d="M48.3519-59.7006L59.869-48.1858C60.9737-47.0799 60.9737-45.2865 59.869-44.1806L55.8628-40.1766C54.7581-39.0708 52.9635-39.0708 51.8577-40.1766L40.3406-51.6915C39.2359-52.7962 39.2359-54.5908 40.3406-55.6955L44.3457-59.7006C45.4515-60.8053 47.2461-60.8053 48.3519-59.7006Z"/>
   <path class="monochrome-2 multicolor-2:tintColor hierarchical-2:primary SFSymbolsPreviewWireframe" d="M14.1827-43.0725C14.132-43.1154 14.0835-43.1605 14.0351-43.2089L10.6387-46.6042C9.70191-47.541 9.70191-49.0628 10.6387-49.9995L20.5359-59.8956C21.4727-60.8324 22.9956-60.8324 23.9323-59.8956L27.3287-56.4992C27.3761-56.4519 27.4223-56.4023 27.4651-56.3516C29.0376-56.4553 30.6451-55.9074 31.8456-54.7069L54.8742-31.6828C56.7477-29.8093 57.0329-26.9461 55.7298-24.7716L63.394-22.0482C63.7693-21.9152 64.0489-21.5996 64.1368-21.2118C64.2236-20.824 64.1064-20.4193 63.8257-20.1375L50.4069-6.72212C50.1251-6.43918 49.717-6.32194 49.3281-6.40987C48.9392-6.4978 48.6225-6.77848 48.4883-7.15498L45.7671-14.8113C43.5927-13.5104 40.7295-13.7956 38.8571-15.668L15.8285-38.6921C14.6269-39.8926 14.079-41.5 14.1827-43.0725Z"/>
   <path class="monochrome-3 multicolor-3:tintColor hierarchical-3:primary SFSymbolsPreviewWireframe" d="M18.845-30.1994L30.361-18.6845C31.4669-17.5787 31.4669-15.7852 30.361-14.6794L26.3559-10.6754C25.2512-9.56955 23.4566-9.56955 22.3508-10.6754L10.8337-22.1902C9.72896-23.2949 9.72896-25.0895 10.8337-26.1942L14.8388-30.1994C15.9446-31.3041 17.7392-31.3041 18.845-30.1994Z"/>
   <path class="monochrome-4 multicolor-4:tintColor hierarchical-4:primary SFSymbolsPreviewWireframe" d="M8.0922-19.4533L19.6093-7.93842C20.7151-6.83259 20.7151-5.03801 19.6093-3.9333L17.6073-1.93131C15.3968 0.279232 11.8065 0.279232 9.59595-1.93131L2.08395-9.44105C-0.126583-11.6516-0.126583-15.2407 2.08395-17.4502L4.08708-19.4533C5.19291-20.558 6.98749-20.558 8.0922-19.4533Z"/>
  </g>
  <g id="Ultralight-S" transform="matrix(1 0 0 1 528.348 696)">
   <path class="monochrome-0 multicolor-0:tintColor hierarchical-0:primary SFSymbolsPreviewWireframe" d="M54.0423-60.7544L60.7063-54.0914C62.6673-52.1314 62.6673-48.9474 60.7063-46.9864L58.9293-45.2104C57.9493-44.2304 56.3573-44.2304 55.3763-45.2104L45.1593-55.4254C44.1793-56.4054 44.1793-57.9974 45.1593-58.9784L46.9363-60.7544C48.8973-62.7154 52.0813-62.7154 54.0423-60.7544Z"/>
   <path class="monochrome-1 multicolor-1:tintColor hierarchical-1:primary SFSymbolsPreviewWireframe" d="M42.7313-52.9944L52.9483-42.7794C53.9283-41.7984 53.9283-40.2074 52.9483-39.2264L49.3943-35.6744C48.4143-34.6934 46.8223-34.6934 45.8413-35.6744L35.6244-45.8894C34.6444-46.8694 34.6444-48.4614 35.6244-49.4414L39.1774-52.9944C40.1584-53.9744 41.7504-53.9744 42.7313-52.9944Z"/>
   <path class="monochrome-2 multicolor-2:tintColor hierarchical-2:primary SFSymbolsPreviewWireframe" d="M12.4195-38.2434C12.3745-38.2814 12.3315-38.3214 12.2885-38.3644L9.27547-41.3764C8.44447-42.2074 8.44447-43.5574 9.27547-44.3884L18.0554-53.1674C18.8864-53.9984 20.2374-53.9984 21.0684-53.1674L24.0814-50.1544C24.1234-50.1124 24.1644-50.0684 24.2024-50.0234C25.5974-50.1154 27.0234-49.6294 28.0884-48.5644L48.5173-28.1394C50.1793-26.4774 50.4323-23.9374 49.2763-22.0084L56.0753-19.5924C56.4083-19.4744 56.6563-19.1944 56.7343-18.8504C56.8113-18.5064 56.7073-18.1474 56.4583-17.8974L44.5543-5.99642C44.3043-5.74542 43.9423-5.64142 43.5973-5.71942C43.2523-5.79742 42.9713-6.04642 42.8523-6.38042L40.4384-13.1724C38.5094-12.0184 35.9694-12.2714 34.3084-13.9324L13.8795-34.3574C12.8135-35.4224 12.3275-36.8484 12.4195-38.2434Z"/>
   <path class="monochrome-3 multicolor-3:tintColor hierarchical-3:primary SFSymbolsPreviewWireframe" d="M16.5554-26.8234L26.7714-16.6084C27.7524-15.6274 27.7524-14.0364 26.7714-13.0554L23.2184-9.50341C22.2384-8.52242 20.6464-8.52242 19.6654-9.50341L9.44847-19.7184C8.46847-20.6984 8.46847-22.2904 9.44847-23.2704L13.0015-26.8234C13.9825-27.8034 15.5744-27.8034 16.5554-26.8234Z"/>
   <path class="monochrome-4 multicolor-4:tintColor hierarchical-4:primary SFSymbolsPreviewWireframe" d="M7.01648-17.2904L17.2334-7.07542C18.2144-6.09442 18.2144-4.50242 17.2334-3.52242L15.4574-1.74642C13.4965 0.214576 10.3115 0.214576 8.35047-1.74642L1.6865-8.40842C-0.274493-10.3694-0.274493-13.5534 1.6865-15.5134L3.46349-17.2904C4.44449-18.2704 6.03648-18.2704 7.01648-17.2904Z"/>
  </g>
 </g>
</svg>
